<?xml version="1.0" encoding="UTF-8" standalone="no"?>
<svg
   xmlns:osb="http://www.openswatchbook.org/uri/2009/osb"
   xmlns:dc="http://purl.org/dc/elements/1.1/"
   xmlns:cc="http://creativecommons.org/ns#"
   xmlns:rdf="http://www.w3.org/1999/02/22-rdf-syntax-ns#"
   xmlns:svg="http://www.w3.org/2000/svg"
   xmlns="http://www.w3.org/2000/svg"
   xmlns:sodipodi="http://sodipodi.sourceforge.net/DTD/sodipodi-0.dtd"
   xmlns:inkscape="http://www.inkscape.org/namespaces/inkscape"
   sodipodi:docname="org.gnome.Gtranslator-symbolic.svg"
   height="16"
   id="svg7384"
   version="1.1"
   inkscape:version="1.0.2 (e86c870879, 2021-01-15)"
   width="16.000017">
  <metadata
     id="metadata90">
    <rdf:RDF>
      <cc:Work
         rdf:about="">
        <dc:format>image/svg+xml</dc:format>
        <dc:type
           rdf:resource="http://purl.org/dc/dcmitype/StillImage" />
        <dc:title>Gnome Symbolic Icon Theme</dc:title>
      </cc:Work>
    </rdf:RDF>
  </metadata>
  <sodipodi:namedview
     inkscape:bbox-paths="true"
     bordercolor="#666666"
     borderopacity="1"
     inkscape:current-layer="layer9"
     inkscape:cx="9.0541887"
     inkscape:cy="8.13894"
     gridtolerance="10"
     inkscape:guide-bbox="true"
     guidetolerance="10"
     id="namedview88"
     inkscape:object-nodes="false"
     inkscape:object-paths="false"
     objecttolerance="10"
     pagecolor="#555753"
     inkscape:pageopacity="1"
     inkscape:pageshadow="2"
     showborder="true"
     showgrid="false"
     showguides="true"
     inkscape:snap-bbox="true"
     inkscape:snap-bbox-midpoints="false"
     inkscape:snap-global="true"
     inkscape:snap-grids="true"
     inkscape:snap-nodes="true"
     inkscape:snap-others="false"
     inkscape:snap-to-guides="true"
     inkscape:window-height="699"
     inkscape:window-maximized="1"
     inkscape:window-width="1366"
     inkscape:window-x="0"
     inkscape:window-y="0"
     inkscape:zoom="19.916661"
     inkscape:document-rotation="0">
    <inkscape:grid
       empspacing="2"
       enabled="true"
       id="grid4866"
       originx="-241.99998"
       originy="-362"
       snapvisiblegridlinesonly="true"
       spacingx="1px"
       spacingy="1px"
       type="xygrid"
       visible="true" />
  </sodipodi:namedview>
  <title
     id="title9167">Gnome Symbolic Icon Theme</title>
  <defs
     id="defs7386">
    <linearGradient
       id="linearGradient7212"
       osb:paint="solid">
      <stop
         id="stop7214"
         offset="0"
         style="stop-color:#000000;stop-opacity:1;" />
    </linearGradient>
    <linearGradient
       id="linearGradient1723">
      <stop
         id="stop1719"
         offset="0"
         style="stop-color:#d5d3cf;stop-opacity:1" />
      <stop
         style="stop-color:#f6f5f4;stop-opacity:1"
         offset="0.04545454"
         id="stop1731" />
      <stop
         style="stop-color:#d5d3cf;stop-opacity:1"
         offset="0.09090909"
         id="stop1729" />
      <stop
         style="stop-color:#d5d3cf;stop-opacity:1"
         offset="0.90909088"
         id="stop1727" />
      <stop
         id="stop1733"
         offset="0.95454544"
         style="stop-color:#eeeeec;stop-opacity:1" />
      <stop
         id="stop1721"
         offset="1"
         style="stop-color:#d5d3cf;stop-opacity:1" />
    </linearGradient>
    <linearGradient
       id="linearGradient1351-3">
      <stop
         id="stop1347"
         offset="0"
         style="stop-color:#d5d3cf;stop-opacity:1" />
      <stop
         id="stop1349-6"
         offset="1"
         style="stop-color:#ffffff;stop-opacity:1" />
    </linearGradient>
    <clipPath
       id="clipPath1609-7"
       clipPathUnits="userSpaceOnUse">
      <path
         inkscape:connector-curvature="0"
         style="fill:#e74747;stroke:none;stroke-width:0.25px;stroke-linecap:butt;stroke-linejoin:miter;stroke-opacity:1"
         d="m 252,116 28,-28 v -8 h -36 v 36 z"
         id="path1611-5" />
    </clipPath>
  </defs>
  <g
     inkscape:groupmode="layer"
     id="layer9"
     inkscape:label="apps"
     style="display:inline"
     transform="translate(-483.00018,145)">
    <g
       id="g5191"
       transform="translate(0,0.59086605)">
      <path
         inkscape:connector-curvature="0"
         id="rect8512"
         d="m 484.50019,-143.33008 v 0.004 0.76953 0.51367 1.30469 3.03516 6.00195 c 0,0.56915 0.446,1.02734 1,1.02734 h 11 c 0.554,0 1,-0.45819 1,-1.02734 v -6.00195 -3.03516 -1.30469 -0.51367 -0.76953 -0.004 h -1.32031 v 11.37891 H 485.8205 v -11.37891 z"
         clip-path="none"
         style="display:inline;opacity:1;vector-effect:none;fill:#bebebe;fill-opacity:1;stroke:none;stroke-width:13.7188;stroke-linecap:butt;stroke-linejoin:miter;stroke-miterlimit:4;stroke-dasharray:none;stroke-dashoffset:0;stroke-opacity:1;marker:none;marker-start:none;marker-mid:none;marker-end:none;paint-order:normal;enable-background:new" />
      <g
         transform="translate(0.12500849)"
         id="g5182">
        <path
           d="m 486.78143,-144.49912 a 0.50005,0.50005 0 0 0 -0.40625,0.5 v 3 a 0.50005,0.50005 0 1 0 1,0 v -3 a 0.50005,0.50005 0 0 0 -0.59375,-0.5 z"
           id="path3601-2-3-3-9"
           style="color:#000000;font-style:normal;font-variant:normal;font-weight:normal;font-stretch:normal;font-size:medium;line-height:normal;font-family:Sans;-inkscape-font-specification:Sans;text-indent:0;text-align:start;text-decoration:none;text-decoration-line:none;letter-spacing:normal;word-spacing:normal;text-transform:none;writing-mode:lr-tb;direction:ltr;baseline-shift:baseline;text-anchor:start;display:inline;overflow:visible;visibility:visible;fill:#bebebe;fill-opacity:1;stroke:none;stroke-width:1;marker:none;enable-background:accumulate"
           inkscape:connector-curvature="0" />
        <path
           d="m 488.78143,-144.49912 a 0.50005,0.50005 0 0 0 -0.40625,0.5 v 3 a 0.50005,0.50005 0 1 0 1,0 v -3 a 0.50005,0.50005 0 0 0 -0.59375,-0.5 z"
           id="path3601-2-3-3-9-3"
           style="color:#000000;font-style:normal;font-variant:normal;font-weight:normal;font-stretch:normal;font-size:medium;line-height:normal;font-family:Sans;-inkscape-font-specification:Sans;text-indent:0;text-align:start;text-decoration:none;text-decoration-line:none;letter-spacing:normal;word-spacing:normal;text-transform:none;writing-mode:lr-tb;direction:ltr;baseline-shift:baseline;text-anchor:start;display:inline;overflow:visible;visibility:visible;fill:#bebebe;fill-opacity:1;stroke:none;stroke-width:1;marker:none;enable-background:accumulate"
           inkscape:connector-curvature="0" />
        <path
           d="m 490.78143,-144.49912 a 0.50005,0.50005 0 0 0 -0.40625,0.5 v 3 a 0.50005,0.50005 0 1 0 1,0 v -3 a 0.50005,0.50005 0 0 0 -0.59375,-0.5 z"
           id="path3601-2-3-3-9-3-3"
           style="color:#000000;font-style:normal;font-variant:normal;font-weight:normal;font-stretch:normal;font-size:medium;line-height:normal;font-family:Sans;-inkscape-font-specification:Sans;text-indent:0;text-align:start;text-decoration:none;text-decoration-line:none;letter-spacing:normal;word-spacing:normal;text-transform:none;writing-mode:lr-tb;direction:ltr;baseline-shift:baseline;text-anchor:start;display:inline;overflow:visible;visibility:visible;fill:#bebebe;fill-opacity:1;stroke:none;stroke-width:1;marker:none;enable-background:accumulate"
           inkscape:connector-curvature="0" />
        <path
           d="m 492.78143,-144.49912 a 0.50005,0.50005 0 0 0 -0.40625,0.5 v 3 a 0.50005,0.50005 0 1 0 1,0 v -3 a 0.50005,0.50005 0 0 0 -0.59375,-0.5 z"
           id="path3601-2-3-3-9-3-3-7"
           style="color:#000000;font-style:normal;font-variant:normal;font-weight:normal;font-stretch:normal;font-size:medium;line-height:normal;font-family:Sans;-inkscape-font-specification:Sans;text-indent:0;text-align:start;text-decoration:none;text-decoration-line:none;letter-spacing:normal;word-spacing:normal;text-transform:none;writing-mode:lr-tb;direction:ltr;baseline-shift:baseline;text-anchor:start;display:inline;overflow:visible;visibility:visible;fill:#bebebe;fill-opacity:1;stroke:none;stroke-width:1;marker:none;enable-background:accumulate"
           inkscape:connector-curvature="0" />
        <path
           inkscape:connector-curvature="0"
           style="color:#000000;font-style:normal;font-variant:normal;font-weight:normal;font-stretch:normal;font-size:medium;line-height:normal;font-family:Sans;-inkscape-font-specification:Sans;text-indent:0;text-align:start;text-decoration:none;text-decoration-line:none;letter-spacing:normal;word-spacing:normal;text-transform:none;writing-mode:lr-tb;direction:ltr;baseline-shift:baseline;text-anchor:start;display:inline;overflow:visible;visibility:visible;fill:#bebebe;fill-opacity:1;stroke:none;stroke-width:1;marker:none;enable-background:accumulate"
           id="path5175"
           d="m 494.78143,-144.49912 a 0.50005,0.50005 0 0 0 -0.40625,0.5 v 3 a 0.50005,0.50005 0 1 0 1,0 v -3 a 0.50005,0.50005 0 0 0 -0.59375,-0.5 z" />
      </g>
    </g>
    <path
       d="m 489.96184,-132.44434 h -2.88568 l -0.51794,1.47658 h -1.61725 l 2.7377,-7.3227 h 1.75466 l 2.6637,7.3227 h -1.62782 z m -0.43339,-1.25562 -1.00416,-2.86277 -1.00417,2.86277 z"
       style="font-style:normal;font-variant:normal;font-weight:bold;font-stretch:normal;font-size:10.3042px;line-height:0%;font-family:FreeSans;-inkscape-font-specification:'FreeSans Bold';text-align:center;text-anchor:middle;fill:#bebebe;fill-opacity:1;stroke:none;stroke-width:1.10453"
       id="path155" />
    <path
       d="m 494.26657,-135.34395 h 0.96118 v -0.38074 h 0.39424 v 0.94118 h -2.10939 v -0.58786 q 0.44893,-0.0974 0.67915,-0.56045 0.23022,-0.46297 0.23022,-1.27318 0,-0.89854 -0.28778,-1.36761 -0.28777,-0.47212 -0.8403,-0.47212 -0.55254,0 -0.84031,0.47212 -0.28489,0.46907 -0.28489,1.3737 0,0.79498 0.23309,1.26405 0.2331,0.46603 0.67628,0.56349 v 0.58786 h -2.11228 v -0.94118 h 0.39138 v 0.38074 h 0.96404 q -0.68202,-0.28022 -1.03311,-0.76758 -0.35109,-0.49038 -0.35109,-1.16048 0,-0.96251 0.64462,-1.55036 0.6475,-0.59091 1.71227,-0.59091 1.06477,0 1.71227,0.59091 0.64749,0.58785 0.64749,1.55036 0,0.6701 -0.35109,1.16048 -0.35108,0.48736 -1.03599,0.76758 z"
       style="font-style:normal;font-weight:bold;font-size:6.06339px;line-height:0%;font-family:FreeSans;-inkscape-font-specification:'Sans Bold';text-align:center;text-anchor:middle;fill:#bebebe;fill-opacity:1;stroke:none;stroke-width:1.10453"
       id="path159" />
  </g>
</svg>
