/* XPM */
static char *copy_msgid2msgstr_xpm[] = {
"16 16 31 1",
" 	c None",
".	c #000000",
"+	c #ECD6A4",
"@	c #FFFFFF",
"#	c #FAF7E9",
"$	c #D1940C",
"%	c #EFEFEF",
"&	c #D2D2D2",
"*	c #CCCCCC",
"=	c #F5EBC4",
"-	c #EED680",
";	c #1A293B",
">	c #1C2D40",
",	c #23374D",
"'	c #2B445F",
")	c #FAFAFA",
"!	c #E2C76D",
"~	c #E9CE73",
"{	c #B5A05B",
"]	c #594613",
"^	c #273E56",
"/	c #F9F9F9",
"(	c #AC7A09",
"_	c #694904",
":	c #F8F8F8",
"<	c #614404",
"[	c #181818",
"}	c #BC850A",
"|	c #5C4004",
"1	c #090909",
"2	c #5B4003",
"                ",
"                ",
"         .      ",
"         ..     ",
" .........+.    ",
" .@@@@@@@.#$.   ",
" .@%&&%%*.=-$.  ",
" .@&&;%%*.---$. ",
" .@&>,')*.$!~{].",
" .@%%^)/*.$($_. ",
" .@%%/:%*.($<.  ",
" .@******[}|.   ",
" ..1......2.    ",
"         ..     ",
"         .      ",
"                "};
