/* XPM */
static char *query_xpm[] = {
"16 16 90 1",
" 	c None",
".	c #4C4C4C",
"+	c #BCBCBC",
"@	c #9C9C9C",
"#	c #3E3E3E",
"$	c #A1A1A1",
"%	c #F5F5F5",
"&	c #FDFDFD",
"*	c #DADADA",
"=	c #414141",
"-	c #878787",
";	c #FEFEFE",
">	c #F7F7F7",
",	c #F1F1F1",
"'	c #EAEAEA",
")	c #FAFAFA",
"!	c #535353",
"~	c #2F2F2F",
"{	c #434343",
"]	c #E9E9E9",
"^	c #545454",
"/	c #7B7B7B",
"(	c #C2C2C2",
"_	c #F4F4F4",
":	c #000000",
"<	c #C4C4C4",
"[	c #F8F8F8",
"}	c #6C6C6C",
"|	c #4B4B4B",
"1	c #E5E5E5",
"2	c #FBFBFB",
"3	c #9D9D9D",
"4	c #494949",
"5	c #AAAAAA",
"6	c #474747",
"7	c #E0E0E0",
"8	c #3A3A36",
"9	c #525251",
"0	c #8E8E8A",
"a	c #BFBFBF",
"b	c #D8D8D8",
"c	c #3D3D3D",
"d	c #D9D9D9",
"e	c #B1B1B0",
"f	c #42423B",
"g	c #C0C0B0",
"h	c #CACAB7",
"i	c #808073",
"j	c #646460",
"k	c #C3C3C3",
"l	c #848484",
"m	c #979797",
"n	c #B2B2B1",
"o	c #8B8B7D",
"p	c #E7E7DE",
"q	c #C1C1AF",
"r	c #A1A190",
"s	c #AEAEAE",
"t	c #E2E2E2",
"u	c #EEEEEE",
"v	c #A8A8A7",
"w	c #848477",
"x	c #C7C7B7",
"y	c #ABAB99",
"z	c #919182",
"A	c #41413A",
"B	c #6E6E6D",
"C	c #777770",
"D	c #9C9C8C",
"E	c #9B9B8B",
"F	c #606056",
"G	c #1E1E1B",
"H	c #A8A8A8",
"I	c #E1E1E1",
"J	c #7F7F7F",
"K	c #404040",
"L	c #3C3C3C",
"M	c #757571",
"N	c #515150",
"O	c #4F4F4F",
"P	c #393939",
"Q	c #555555",
"R	c #8A8A8A",
"S	c #909090",
"T	c #B4B4B4",
"U	c #4A4A4A",
"V	c #6E6E6E",
"W	c #0A0A0A",
"X	c #333333",
"Y	c #010101",
"                ",
"                ",
"      .+@       ",
"    #$%&*=      ",
"   -;>,')!~.    ",
"   {;>>]^/(_:   ",
"   :<[}|12_[3   ",
"  4567890a')b=  ",
"  cdefghijk1[l  ",
"   mnopqrfstu,: ",
"   :vwxyzA5u;>m ",
"    BCDEFGHI]JK ",
"    LbMNOPQR:   ",
"     STU VWX    ",
"           YY   ",
"                "};
