/* XPM */
static char * untrans_xpm[] = {
"24 24 143 2",
"  	c None",
". 	c #000000",
"+ 	c #FFFFFF",
"@ 	c #141614",
"# 	c #EFF3EE",
"$ 	c #DEE7DC",
"% 	c #ADAD9C",
"& 	c #F1F7EF",
"* 	c #E8EFE7",
"= 	c #DBDFD9",
"- 	c #0B0B0B",
"; 	c #242424",
"> 	c #A1A195",
", 	c #C7C7B4",
"' 	c #959585",
") 	c #D6E2D3",
"! 	c #A7BBA2",
"~ 	c #0E100D",
"{ 	c #E1E1CA",
"] 	c #C0C0AF",
"^ 	c #606060",
"/ 	c #A6A699",
"( 	c #D7D7C1",
"_ 	c #A7A796",
": 	c #92D381",
"< 	c #8EC17F",
"[ 	c #688F5E",
"} 	c #4D6547",
"| 	c #162013",
"1 	c #777772",
"2 	c #D1D1BC",
"3 	c #DFDFC7",
"4 	c #747470",
"5 	c #656564",
"6 	c #D0D0BB",
"7 	c #D6D6BF",
"8 	c #A6A694",
"9 	c #0A0A09",
"0 	c #709364",
"a 	c #2C5421",
"b 	c #152012",
"c 	c #343434",
"d 	c #A2A296",
"e 	c #909087",
"f 	c #DDDDC5",
"g 	c #DADAC3",
"h 	c #A4A496",
"i 	c #BDBDAA",
"j 	c #CCCCB5",
"k 	c #9B9B90",
"l 	c #9C9C92",
"m 	c #3B3B36",
"n 	c #080808",
"o 	c #6C9362",
"p 	c #1E3019",
"q 	c #B7B7A4",
"r 	c #ECECD4",
"s 	c #E6E6CE",
"t 	c #96968C",
"u 	c #636362",
"v 	c #D4D4BE",
"w 	c #D9D9C2",
"x 	c #ACAC9D",
"y 	c #DADAC2",
"z 	c #CECEB9",
"A 	c #BDBDA9",
"B 	c #969686",
"C 	c #60605B",
"D 	c #444444",
"E 	c #30302B",
"F 	c #727266",
"G 	c #EAEAD2",
"H 	c #E8E8D0",
"I 	c #D5D5C0",
"J 	c #616160",
"K 	c #CCCCB6",
"L 	c #73736F",
"M 	c #A5A598",
"N 	c #D6D6C0",
"O 	c #D5D5BE",
"P 	c #171716",
"Q 	c #F3F3DA",
"R 	c #6B6B60",
"S 	c #010101",
"T 	c #070706",
"U 	c #D8D8C1",
"V 	c #EAEAD1",
"W 	c #DCDCC4",
"X 	c #676766",
"Y 	c #D2D2BC",
"Z 	c #DBDBC3",
"` 	c #7E7E78",
" .	c #D4D4BD",
"..	c #212121",
"+.	c #F5F5DC",
"@.	c #F4F4DB",
"#.	c #E4E4CD",
"$.	c #A5A594",
"%.	c #E7E7CF",
"&.	c #E5E5CD",
"*.	c #E2E2CA",
"=.	c #9D9D91",
"-.	c #66665C",
";.	c #BEBEAB",
">.	c #5A5A50",
",.	c #191916",
"'.	c #DBDBC4",
").	c #9E9E92",
"!.	c #ABAB9D",
"~.	c #272725",
"{.	c #D8D8C2",
"].	c #F1F1D8",
"^.	c #C4C4B0",
"/.	c #090908",
"(.	c #7F7F72",
"_.	c #DDDDC6",
":.	c #CACAB6",
"<.	c #929283",
"[.	c #818174",
"}.	c #EEEED5",
"|.	c #EBEBD2",
"1.	c #46463F",
"2.	c #0C0C0A",
"3.	c #040403",
"4.	c #F2F2D9",
"5.	c #EFEFD6",
"6.	c #ECECD3",
"7.	c #E9E9D1",
"8.	c #080807",
"9.	c #CACAB5",
"0.	c #9D9D8C",
"a.	c #F0F0D7",
"b.	c #EDEDD4",
"c.	c #32322D",
"d.	c #040404",
"e.	c #828274",
"f.	c #EBEBD3",
"g.	c #7A7A6F",
"h.	c #5B5B51",
"i.	c #4D4D45",
"j.	c #CDCDB8",
"k.	c #BBBBA8",
"l.	c #A6A696",
"                                                ",
"  . .                                           ",
"  . + . @             .                         ",
"  . + # $ . .       . % . .                     ",
"  . + & & * = . -   ; > , ' . .                 ",
"  . + ) ) ) ) ) ! ~ { ] ^ / ( _ . .             ",
"  . : < < < [ } | 1 2 3 ( 4 5 6 7 8 9 .         ",
"  . : < 0 a b   c d ^ e f g h ^ i j k l m n     ",
"  . o a p     . q r s t u v w e 5 x y z A B C   ",
"  . D       . E . F G H I J 2 w K L M N w O P   ",
"            . Q R S T U V W X Y Z g ` U w  ...  ",
"          . +.@.Q #.9 . $.%.&.*.=.g g w w -.    ",
"        . ;.+.+.@.@.Q >.. ,.'.*.).^ !.w U ~.    ",
"      . {.+.+.+.+.+.Q ].^./.S (._.:.!.w <..     ",
"      . [.+.+.+.+.+.Q ].}.|.1.. 2.w w ( 3.      ",
"        . . +.+.+.+.@.4.5.6.7.8 8.. 9.0..       ",
"            . g +.+.@.Q a.b.G H &.c.. d.        ",
"              . e.4.@.Q 4.5.b.G 7.f.g..         ",
"                  . g 4.4.].5.b.r f.h.          ",
"                    . $.7.4.].a.5..             ",
"                      . i.j.Q 4.k..             ",
"                          . l.Q .               ",
"                            . .                 ",
"                                                "};
