<?xml version="1.0" encoding="UTF-8"?>
<svg height="128px" viewBox="0 0 128 128" width="128px" xmlns="http://www.w3.org/2000/svg" xmlns:xlink="http://www.w3.org/1999/xlink">
    <filter id="a" height="100%" width="100%" x="0%" y="0%">
        <feColorMatrix color-interpolation-filters="sRGB" values="0 0 0 0 1 0 0 0 0 1 0 0 0 0 1 0 0 0 1 0"/>
    </filter>
    <linearGradient id="b" gradientTransform="matrix(-1 0 0 -1 123.865074 -168.000004)" gradientUnits="userSpaceOnUse" x1="7.99998" x2="111.999992" y1="-244.843811" y2="-244">
        <stop offset="0" stop-color="#d5d3cf"/>
        <stop offset="0.0454545" stop-color="#f6f5f4"/>
        <stop offset="0.0909091" stop-color="#d5d3cf"/>
        <stop offset="0.909091" stop-color="#d5d3cf"/>
        <stop offset="0.954545" stop-color="#eeeeec"/>
        <stop offset="1" stop-color="#d5d3cf"/>
    </linearGradient>
    <clipPath id="c">
        <path d="m 96 90 h 21 v 21 h -21 z m 0 0"/>
    </clipPath>
    <clipPath id="d">
        <path d="m 116.136719 90.792969 l -20 20 h -5.714844 v -25.714844 h 25.714844 z m 0 0"/>
    </clipPath>
    <linearGradient id="e" gradientTransform="matrix(0 0.178571 0.178571 0 92.563479 39.362855)" gradientUnits="userSpaceOnUse" x1="344" x2="340" y1="76" y2="72">
        <stop offset="0" stop-color="#d5d3cf"/>
        <stop offset="1" stop-color="#ffffff"/>
    </linearGradient>
    <clipPath id="f">
        <path d="m 96 90 h 21 v 21 h -21 z m 0 0"/>
    </clipPath>
    <clipPath id="g">
        <path d="m 116.136719 90.792969 l -20 20 h -5.714844 v -25.714844 h 25.714844 z m 0 0"/>
    </clipPath>
    <clipPath id="h">
        <rect height="128" width="128"/>
    </clipPath>
    <clipPath id="i">
        <rect height="128" width="128"/>
    </clipPath>
    <mask id="j">
        <g filter="url(#a)">
            <g clip-path="url(#i)" filter="url(#a)">
                <g clip-path="url(#h)">
                    <path d="m 107.863281 116 h -88 c -4.417969 0 -8 -3.582031 -8 -8 v -11.597656 c 0 -4.417969 3.582031 -8 8 -8 h 88 c 4.421875 0 8 3.582031 8 8 v 11.597656 c 0 4.417969 -3.578125 8 -8 8 z m 0 0" fill="#26a269"/>
                    <path d="m 107.863281 114.175781 h -88 c -4.417969 0 -8 -3.582031 -8 -8 v -20.492187 c 0 -4.417969 3.582031 -8 8 -8 h 88 c 4.421875 0 8 3.582031 8 8 v 20.492187 c 0 4.417969 -3.578125 8 -8 8 z m 0 0" fill="url(#b)"/>
                    <path d="m 115.863281 55.789062 h -104 v -43.789062 h 104 z m 0 0" fill="#f6f5f4"/>
                    <path d="m 107.863281 110.527344 h -88 c -4.417969 0 -8 -3.582032 -8 -8 v -82.527344 c 0 -4.417969 3.582031 -8 8 -8 h 88 c 4.421875 0 8 3.582031 8 8 v 82.527344 c 0 4.417968 -3.578125 8 -8 8 z m 0 0" fill="#f6f5f4"/>
                    <path d="m 45.691406 94.269531 h -11.199218 l -2.011719 5.730469 h -6.277344 l -0.003906 -2 l 10.628906 -26.425781 h 6.8125 l 10.375 26.425781 l -0.035156 2 h -6.316407 z m -1.679687 -4.875 l -3.898438 -11.113281 l -3.898437 11.113281 z m 0 0" fill="#241f31" fill-opacity="0.141176"/>
                    <path d="m 90.578125 60.988281 h 6.339844 v -2.511719 h 2.601562 v 6.210938 h -13.914062 v -3.878906 c 1.972656 -0.429688 3.464843 -1.660156 4.480469 -3.695313 c 1.011718 -2.039062 1.515624 -4.835937 1.515624 -8.402343 c 0 -3.949219 -0.632812 -6.957032 -1.898437 -9.019532 c -1.265625 -2.078125 -3.113281 -3.117187 -5.542969 -3.117187 c -2.429687 0 -4.277344 1.039062 -5.542968 3.117187 c -1.253907 2.0625 -1.878907 5.082032 -1.878907 9.0625 c 0 3.496094 0.511719 6.273438 1.539063 8.335938 c 1.023437 2.050781 2.511718 3.289062 4.460937 3.71875 v 3.878906 h -13.9375 v -6.210938 h 2.582031 v 2.511719 h 6.363282 c -3 -1.230469 -5.273438 -2.917969 -6.816406 -5.0625 c -1.542969 -2.15625 -2.316407 -4.707031 -2.316407 -7.65625 c 0 -4.230469 1.417969 -7.640625 4.253907 -10.226562 c 2.847656 -2.597657 6.609374 -3.898438 11.292968 -3.898438 s 8.449219 1.300781 11.296875 3.898438 c 2.847657 2.585937 4.269531 5.996093 4.269531 10.226562 c 0 2.949219 -0.769531 5.5 -2.3125 7.65625 c -1.546874 2.144531 -3.824218 3.832031 -6.835937 5.0625 z m 0 0" fill="#241f31" fill-opacity="0.141176"/>
                    <path d="m 45.699219 92.269531 h -11.203125 l -2.011719 5.730469 h -6.277344 l 10.628907 -28.425781 h 6.8125 l 10.339843 28.425781 h -6.320312 z m -1.683594 -4.875 l -3.898437 -11.113281 l -3.898438 11.113281 z m 0 0" fill="#5e5c64"/>
                    <path d="m 90.578125 58.988281 h 6.339844 v -2.511719 h 2.601562 v 6.210938 h -13.914062 v -3.878906 c 1.972656 -0.429688 3.464843 -1.660156 4.480469 -3.695313 c 1.011718 -2.039062 1.515624 -4.835937 1.515624 -8.402343 c 0 -3.949219 -0.632812 -6.957032 -1.898437 -9.019532 c -1.265625 -2.078125 -3.113281 -3.117187 -5.542969 -3.117187 c -2.429687 0 -4.277344 1.039062 -5.542968 3.117187 c -1.253907 2.0625 -1.878907 5.082032 -1.878907 9.0625 c 0 3.496094 0.511719 6.273438 1.539063 8.335938 c 1.023437 2.050781 2.511718 3.289062 4.460937 3.71875 v 3.878906 h -13.9375 v -6.210938 h 2.582031 v 2.511719 h 6.363282 c -3 -1.230469 -5.273438 -2.917969 -6.816406 -5.0625 c -1.542969 -2.15625 -2.316407 -4.707031 -2.316407 -7.65625 c 0 -4.230469 1.417969 -7.640625 4.253907 -10.226562 c 2.847656 -2.597657 6.609374 -3.898438 11.292968 -3.898438 s 8.449219 1.300781 11.296875 3.898438 c 2.847657 2.585937 4.269531 5.996093 4.269531 10.226562 c 0 2.949219 -0.769531 5.5 -2.3125 7.65625 c -1.546874 2.144531 -3.824218 3.832031 -6.835937 5.0625 z m 0 0" fill="#5e5c64"/>
                    <g clip-path="url(#f)">
                        <g clip-path="url(#g)">
                            <path d="m 96.136719 98.792969 v 9.710937 c 0 4.421875 3.578125 8 8 8 h 9.710937 c 4.417969 0 8 -3.578125 8 -8 v -9.710937 c 0 -4.417969 -3.582031 -8 -8 -8 h -9.710937 c -4.421875 0 -8 3.582031 -8 8 z m 0 0" fill="url(#e)"/>
                        </g>
                    </g>
                    <path d="m 19.863281 18 c -1.101562 0 -2 0.894531 -2 2 s 0.898438 2 2 2 c 1.105469 0 2 -0.894531 2 -2 s -0.894531 -2 -2 -2 z m 8 0 c -1.101562 0 -2 0.894531 -2 2 s 0.898438 2 2 2 c 1.105469 0 2 -0.894531 2 -2 s -0.894531 -2 -2 -2 z m 8 0 c -1.101562 0 -2 0.894531 -2 2 s 0.898438 2 2 2 c 1.105469 0 2 -0.894531 2 -2 s -0.894531 -2 -2 -2 z m 8 0 c -1.101562 0 -2 0.894531 -2 2 s 0.898438 2 2 2 c 1.105469 0 2 -0.894531 2 -2 s -0.894531 -2 -2 -2 z m 8 0 c -1.101562 0 -2 0.894531 -2 2 s 0.898438 2 2 2 c 1.105469 0 2 -0.894531 2 -2 s -0.894531 -2 -2 -2 z m 8 0 c -1.101562 0 -2 0.894531 -2 2 s 0.898438 2 2 2 c 1.105469 0 2 -0.894531 2 -2 s -0.894531 -2 -2 -2 z m 8 0 c -1.101562 0 -2 0.894531 -2 2 s 0.898438 2 2 2 c 1.105469 0 2 -0.894531 2 -2 s -0.894531 -2 -2 -2 z m 8 0 c -1.101562 0 -2 0.894531 -2 2 s 0.898438 2 2 2 c 1.105469 0 2 -0.894531 2 -2 s -0.894531 -2 -2 -2 z m 8 0 c -1.101562 0 -2 0.894531 -2 2 s 0.898438 2 2 2 c 1.105469 0 2 -0.894531 2 -2 s -0.894531 -2 -2 -2 z m 0 0" fill="#d5d3cf"/>
                    <path d="m 11.863281 18 c 1.105469 0 2 0.894531 2 2 s -0.894531 2 -2 2 z m 0 0" fill="#d5d3cf"/>
                    <path d="m 115.863281 18 c -1.101562 0 -2 0.894531 -2 2 s 0.898438 2 2 2 z m 0 0" fill="#d5d3cf"/>
                    <path d="m 43.863281 18 c -1.101562 0 -2 0.894531 -2 2 s 0.898438 2 2 2 c 1.105469 0 2 -0.894531 2 -2 s -0.894531 -2 -2 -2 z m 8 0 c -1.101562 0 -2 0.894531 -2 2 s 0.898438 2 2 2 c 1.105469 0 2 -0.894531 2 -2 s -0.894531 -2 -2 -2 z m 8 0 c -1.101562 0 -2 0.894531 -2 2 s 0.898438 2 2 2 c 1.105469 0 2 -0.894531 2 -2 s -0.894531 -2 -2 -2 z m 8 0 c -1.101562 0 -2 0.894531 -2 2 s 0.898438 2 2 2 c 1.105469 0 2 -0.894531 2 -2 s -0.894531 -2 -2 -2 z m 8 0 c -1.101562 0 -2 0.894531 -2 2 s 0.898438 2 2 2 c 1.105469 0 2 -0.894531 2 -2 s -0.894531 -2 -2 -2 z m 8 0 c -1.101562 0 -2 0.894531 -2 2 s 0.898438 2 2 2 c 1.105469 0 2 -0.894531 2 -2 s -0.894531 -2 -2 -2 z m 8 0 c -1.101562 0 -2 0.894531 -2 2 s 0.898438 2 2 2 c 1.105469 0 2 -0.894531 2 -2 s -0.894531 -2 -2 -2 z m 8 0 c -1.101562 0 -2 0.894531 -2 2 s 0.898438 2 2 2 c 1.105469 0 2 -0.894531 2 -2 s -0.894531 -2 -2 -2 z m 8 0 c -1.101562 0 -2 0.894531 -2 2 s 0.898438 2 2 2 c 1.105469 0 2 -0.894531 2 -2 s -0.894531 -2 -2 -2 z m 0 0" fill="#d5d3cf"/>
                    <path d="m 52.4375 47.195312 l 1.582031 4.832032 l 11.023438 -12.140625 v -2.9375 l -16.019531 -5.085938 l 0.050781 2.804688 l 0.882812 4.601562 c -14.023437 7.066407 -19.628906 18.488281 -19.628906 19.011719 v 2.9375 l 8.902344 1.46875 c 2.011719 -8.511719 6.960937 -12.820312 13.207031 -15.492188 z m 0 0" fill="#424040" fill-opacity="0.141176"/>
                    <path d="m 52.4375 44.257812 l 1.582031 4.835938 l 11.023438 -12.144531 l -16.019531 -5.085938 l 0.933593 4.472657 c -15.804687 7.960937 -17.453125 14.933593 -19.628906 21.945312 l 8.535156 1.511719 c 2.011719 -8.515625 7.328125 -12.859375 13.574219 -15.535157 z m 0 0" fill="#33d17a"/>
                    <path d="m 72.511719 87.28125 l -1.582031 -4.832031 l -11.910157 9.359375 l 0.007813 2.785156 l 16.070312 5.5 l -0.085937 -3.261719 l -0.511719 -1.507812 c 15.804688 -7.960938 18.683594 -18.5625 19.195312 -21.085938 l 0.015626 -3.769531 l -7.625 1.28125 c -2.011719 8.511719 -7.328126 12.859375 -13.574219 15.53125 z m 0 0" fill-opacity="0.141176"/>
                    <path d="m 71.609375 84.507812 l -1.582031 -4.832031 l -11.019532 12.144531 l 16.019532 5.085938 l -0.9375 -4.472656 c 15.804687 -7.964844 17.457031 -14.9375 19.632812 -21.949219 l -8.535156 -1.507813 c -2.015625 8.511719 -7.332031 12.859376 -13.578125 15.53125 z m 0 0" fill="#33d17a"/>
                </g>
            </g>
        </g>
    </mask>
    <mask id="k">
        <g filter="url(#a)">
            <rect fill-opacity="0.8" height="184.32" width="184.32" x="-28.16" y="-28.16"/>
        </g>
    </mask>
    <linearGradient id="l" gradientTransform="matrix(0 0.37 -0.98462 0 295.38501 -30.360001)" gradientUnits="userSpaceOnUse" x1="300" x2="428" y1="235" y2="235">
        <stop offset="0" stop-color="#f9f06b"/>
        <stop offset="1" stop-color="#f5c211"/>
    </linearGradient>
    <clipPath id="m">
        <rect height="128" width="128"/>
    </clipPath>
    <clipPath id="n">
        <rect height="128" width="128"/>
    </clipPath>
    <path d="m 107.863281 116 h -88 c -4.417969 0 -8 -3.582031 -8 -8 v -11.597656 c 0 -4.417969 3.582031 -8 8 -8 h 88 c 4.421875 0 8 3.582031 8 8 v 11.597656 c 0 4.417969 -3.578125 8 -8 8 z m 0 0" fill="#26a269"/>
    <path d="m 107.863281 114.175781 h -88 c -4.417969 0 -8 -3.582031 -8 -8 v -20.492187 c 0 -4.417969 3.582031 -8 8 -8 h 88 c 4.421875 0 8 3.582031 8 8 v 20.492187 c 0 4.417969 -3.578125 8 -8 8 z m 0 0" fill="url(#b)"/>
    <path d="m 115.863281 55.789062 h -104 v -43.789062 h 104 z m 0 0" fill="#f6f5f4"/>
    <path d="m 107.863281 110.527344 h -88 c -4.417969 0 -8 -3.582032 -8 -8 v -82.527344 c 0 -4.417969 3.582031 -8 8 -8 h 88 c 4.421875 0 8 3.582031 8 8 v 82.527344 c 0 4.417968 -3.578125 8 -8 8 z m 0 0" fill="#f6f5f4"/>
    <path d="m 45.691406 94.269531 h -11.199218 l -2.011719 5.730469 h -6.277344 l -0.003906 -2 l 10.628906 -26.425781 h 6.8125 l 10.375 26.425781 l -0.035156 2 h -6.316407 z m -1.679687 -4.875 l -3.898438 -11.113281 l -3.898437 11.113281 z m 0 0" fill="#241f31" fill-opacity="0.141176"/>
    <path d="m 90.578125 60.988281 h 6.339844 v -2.511719 h 2.601562 v 6.210938 h -13.914062 v -3.878906 c 1.972656 -0.429688 3.464843 -1.660156 4.480469 -3.695313 c 1.011718 -2.039062 1.515624 -4.835937 1.515624 -8.402343 c 0 -3.949219 -0.632812 -6.957032 -1.898437 -9.019532 c -1.265625 -2.078125 -3.113281 -3.117187 -5.542969 -3.117187 c -2.429687 0 -4.277344 1.039062 -5.542968 3.117187 c -1.253907 2.0625 -1.878907 5.082032 -1.878907 9.0625 c 0 3.496094 0.511719 6.273438 1.539063 8.335938 c 1.023437 2.050781 2.511718 3.289062 4.460937 3.71875 v 3.878906 h -13.9375 v -6.210938 h 2.582031 v 2.511719 h 6.363282 c -3 -1.230469 -5.273438 -2.917969 -6.816406 -5.0625 c -1.542969 -2.15625 -2.316407 -4.707031 -2.316407 -7.65625 c 0 -4.230469 1.417969 -7.640625 4.253907 -10.226562 c 2.847656 -2.597657 6.609374 -3.898438 11.292968 -3.898438 s 8.449219 1.300781 11.296875 3.898438 c 2.847657 2.585937 4.269531 5.996093 4.269531 10.226562 c 0 2.949219 -0.769531 5.5 -2.3125 7.65625 c -1.546874 2.144531 -3.824218 3.832031 -6.835937 5.0625 z m 0 0" fill="#241f31" fill-opacity="0.141176"/>
    <path d="m 45.699219 92.269531 h -11.203125 l -2.011719 5.730469 h -6.277344 l 10.628907 -28.425781 h 6.8125 l 10.339843 28.425781 h -6.320312 z m -1.683594 -4.875 l -3.898437 -11.113281 l -3.898438 11.113281 z m 0 0" fill="#5e5c64"/>
    <path d="m 90.578125 58.988281 h 6.339844 v -2.511719 h 2.601562 v 6.210938 h -13.914062 v -3.878906 c 1.972656 -0.429688 3.464843 -1.660156 4.480469 -3.695313 c 1.011718 -2.039062 1.515624 -4.835937 1.515624 -8.402343 c 0 -3.949219 -0.632812 -6.957032 -1.898437 -9.019532 c -1.265625 -2.078125 -3.113281 -3.117187 -5.542969 -3.117187 c -2.429687 0 -4.277344 1.039062 -5.542968 3.117187 c -1.253907 2.0625 -1.878907 5.082032 -1.878907 9.0625 c 0 3.496094 0.511719 6.273438 1.539063 8.335938 c 1.023437 2.050781 2.511718 3.289062 4.460937 3.71875 v 3.878906 h -13.9375 v -6.210938 h 2.582031 v 2.511719 h 6.363282 c -3 -1.230469 -5.273438 -2.917969 -6.816406 -5.0625 c -1.542969 -2.15625 -2.316407 -4.707031 -2.316407 -7.65625 c 0 -4.230469 1.417969 -7.640625 4.253907 -10.226562 c 2.847656 -2.597657 6.609374 -3.898438 11.292968 -3.898438 s 8.449219 1.300781 11.296875 3.898438 c 2.847657 2.585937 4.269531 5.996093 4.269531 10.226562 c 0 2.949219 -0.769531 5.5 -2.3125 7.65625 c -1.546874 2.144531 -3.824218 3.832031 -6.835937 5.0625 z m 0 0" fill="#5e5c64"/>
    <g clip-path="url(#c)">
        <g clip-path="url(#d)">
            <path d="m 96.136719 98.792969 v 9.710937 c 0 4.421875 3.578125 8 8 8 h 9.710937 c 4.417969 0 8 -3.578125 8 -8 v -9.710937 c 0 -4.417969 -3.582031 -8 -8 -8 h -9.710937 c -4.421875 0 -8 3.582031 -8 8 z m 0 0" fill="url(#e)"/>
        </g>
    </g>
    <g fill="#d5d3cf">
        <path d="m 19.863281 18 c -1.101562 0 -2 0.894531 -2 2 s 0.898438 2 2 2 c 1.105469 0 2 -0.894531 2 -2 s -0.894531 -2 -2 -2 z m 8 0 c -1.101562 0 -2 0.894531 -2 2 s 0.898438 2 2 2 c 1.105469 0 2 -0.894531 2 -2 s -0.894531 -2 -2 -2 z m 8 0 c -1.101562 0 -2 0.894531 -2 2 s 0.898438 2 2 2 c 1.105469 0 2 -0.894531 2 -2 s -0.894531 -2 -2 -2 z m 8 0 c -1.101562 0 -2 0.894531 -2 2 s 0.898438 2 2 2 c 1.105469 0 2 -0.894531 2 -2 s -0.894531 -2 -2 -2 z m 8 0 c -1.101562 0 -2 0.894531 -2 2 s 0.898438 2 2 2 c 1.105469 0 2 -0.894531 2 -2 s -0.894531 -2 -2 -2 z m 8 0 c -1.101562 0 -2 0.894531 -2 2 s 0.898438 2 2 2 c 1.105469 0 2 -0.894531 2 -2 s -0.894531 -2 -2 -2 z m 8 0 c -1.101562 0 -2 0.894531 -2 2 s 0.898438 2 2 2 c 1.105469 0 2 -0.894531 2 -2 s -0.894531 -2 -2 -2 z m 8 0 c -1.101562 0 -2 0.894531 -2 2 s 0.898438 2 2 2 c 1.105469 0 2 -0.894531 2 -2 s -0.894531 -2 -2 -2 z m 8 0 c -1.101562 0 -2 0.894531 -2 2 s 0.898438 2 2 2 c 1.105469 0 2 -0.894531 2 -2 s -0.894531 -2 -2 -2 z m 0 0"/>
        <path d="m 11.863281 18 c 1.105469 0 2 0.894531 2 2 s -0.894531 2 -2 2 z m 0 0"/>
        <path d="m 115.863281 18 c -1.101562 0 -2 0.894531 -2 2 s 0.898438 2 2 2 z m 0 0"/>
        <path d="m 43.863281 18 c -1.101562 0 -2 0.894531 -2 2 s 0.898438 2 2 2 c 1.105469 0 2 -0.894531 2 -2 s -0.894531 -2 -2 -2 z m 8 0 c -1.101562 0 -2 0.894531 -2 2 s 0.898438 2 2 2 c 1.105469 0 2 -0.894531 2 -2 s -0.894531 -2 -2 -2 z m 8 0 c -1.101562 0 -2 0.894531 -2 2 s 0.898438 2 2 2 c 1.105469 0 2 -0.894531 2 -2 s -0.894531 -2 -2 -2 z m 8 0 c -1.101562 0 -2 0.894531 -2 2 s 0.898438 2 2 2 c 1.105469 0 2 -0.894531 2 -2 s -0.894531 -2 -2 -2 z m 8 0 c -1.101562 0 -2 0.894531 -2 2 s 0.898438 2 2 2 c 1.105469 0 2 -0.894531 2 -2 s -0.894531 -2 -2 -2 z m 8 0 c -1.101562 0 -2 0.894531 -2 2 s 0.898438 2 2 2 c 1.105469 0 2 -0.894531 2 -2 s -0.894531 -2 -2 -2 z m 8 0 c -1.101562 0 -2 0.894531 -2 2 s 0.898438 2 2 2 c 1.105469 0 2 -0.894531 2 -2 s -0.894531 -2 -2 -2 z m 8 0 c -1.101562 0 -2 0.894531 -2 2 s 0.898438 2 2 2 c 1.105469 0 2 -0.894531 2 -2 s -0.894531 -2 -2 -2 z m 8 0 c -1.101562 0 -2 0.894531 -2 2 s 0.898438 2 2 2 c 1.105469 0 2 -0.894531 2 -2 s -0.894531 -2 -2 -2 z m 0 0"/>
    </g>
    <path d="m 52.4375 47.195312 l 1.582031 4.832032 l 11.023438 -12.140625 v -2.9375 l -16.019531 -5.085938 l 0.050781 2.804688 l 0.882812 4.601562 c -14.023437 7.066407 -19.628906 18.488281 -19.628906 19.011719 v 2.9375 l 8.902344 1.46875 c 2.011719 -8.511719 6.960937 -12.820312 13.207031 -15.492188 z m 0 0" fill="#424040" fill-opacity="0.141176"/>
    <path d="m 52.4375 44.257812 l 1.582031 4.835938 l 11.023438 -12.144531 l -16.019531 -5.085938 l 0.933593 4.472657 c -15.804687 7.960937 -17.453125 14.933593 -19.628906 21.945312 l 8.535156 1.511719 c 2.011719 -8.515625 7.328125 -12.859375 13.574219 -15.535157 z m 0 0" fill="#33d17a"/>
    <path d="m 72.511719 87.28125 l -1.582031 -4.832031 l -11.910157 9.359375 l 0.007813 2.785156 l 16.070312 5.5 l -0.085937 -3.261719 l -0.511719 -1.507812 c 15.804688 -7.960938 18.683594 -18.5625 19.195312 -21.085938 l 0.015626 -3.769531 l -7.625 1.28125 c -2.011719 8.511719 -7.328126 12.859375 -13.574219 15.53125 z m 0 0" fill-opacity="0.141176"/>
    <path d="m 71.609375 84.507812 l -1.582031 -4.832031 l -11.019532 12.144531 l 16.019532 5.085938 l -0.9375 -4.472656 c 15.804687 -7.964844 17.457031 -14.9375 19.632812 -21.949219 l -8.535156 -1.507813 c -2.015625 8.511719 -7.332031 12.859376 -13.578125 15.53125 z m 0 0" fill="#33d17a"/>
    <g mask="url(#j)">
        <g clip-path="url(#n)">
            <g mask="url(#k)">
                <g clip-path="url(#m)">
                    <path d="m 128 80.640625 v 47.359375 h -128 v -47.359375 z m 0 0" fill="url(#l)"/>
                    <path d="m 13.308594 80.640625 l 47.355468 47.359375 h 21.214844 l -47.359375 -47.359375 z m 42.421875 0 l 47.363281 47.359375 h 21.214844 l -47.363282 -47.359375 z m 42.429687 0 l 29.839844 29.839844 v -21.210938 l -8.628906 -8.628906 z m -98.160156 7.90625 v 21.214844 l 18.238281 18.238281 h 21.214844 z m 0 0"/>
                </g>
            </g>
        </g>
    </g>
</svg>
