<?xml version="1.0" encoding="UTF-8" standalone="no"?>
<!-- Created with Inkscape (http://www.inkscape.org/) -->

<svg
   xmlns:dc="http://purl.org/dc/elements/1.1/"
   xmlns:cc="http://creativecommons.org/ns#"
   xmlns:rdf="http://www.w3.org/1999/02/22-rdf-syntax-ns#"
   xmlns:svg="http://www.w3.org/2000/svg"
   xmlns="http://www.w3.org/2000/svg"
   xmlns:xlink="http://www.w3.org/1999/xlink"
   xmlns:sodipodi="http://sodipodi.sourceforge.net/DTD/sodipodi-0.dtd"
   xmlns:inkscape="http://www.inkscape.org/namespaces/inkscape"
   width="128"
   height="128"
   id="svg3085"
   version="1.1"
   inkscape:version="0.92.2 2405546, 2018-03-11"
   sodipodi:docname="org.gnome.Gtranslator.svg">
  <defs
     id="defs3087">
    <inkscape:perspective
       sodipodi:type="inkscape:persp3d"
       inkscape:vp_x="0 : 24 : 1"
       inkscape:vp_y="0 : 1000 : 0"
       inkscape:vp_z="48 : 24 : 1"
       inkscape:persp3d-origin="24 : 16 : 1"
       id="perspective3093" />
    <inkscape:perspective
       id="perspective3254"
       inkscape:persp3d-origin="0.5 : 0.33333333 : 1"
       inkscape:vp_z="1 : 0.5 : 1"
       inkscape:vp_y="0 : 1000 : 0"
       inkscape:vp_x="0 : 0.5 : 1"
       sodipodi:type="inkscape:persp3d" />
    <linearGradient
       inkscape:collect="always"
       id="linearGradient10239">
      <stop
         style="stop-color:#000000;stop-opacity:1;"
         offset="0"
         id="stop10241" />
      <stop
         style="stop-color:#000000;stop-opacity:0;"
         offset="1"
         id="stop10243" />
    </linearGradient>
    <radialGradient
       inkscape:collect="always"
       xlink:href="#linearGradient10239"
       id="radialGradient10421"
       gradientUnits="userSpaceOnUse"
       gradientTransform="matrix(1,0,0,0.1531531,0,172.42861)"
       cx="307.2821"
       cy="203.6125"
       fx="306.28568"
       fy="203.6125"
       r="4.9055533" />
    <linearGradient
       inkscape:collect="always"
       xlink:href="#linearGradient1351-3"
       id="linearGradient8550"
       gradientUnits="userSpaceOnUse"
       gradientTransform="matrix(0.25,0,0,0.25,180,83)"
       x1="344"
       y1="76"
       x2="340"
       y2="72" />
    <linearGradient
       id="linearGradient1351-3">
      <stop
         id="stop1347"
         offset="0"
         style="stop-color:#d5d3cf;stop-opacity:1" />
      <stop
         id="stop1349-6"
         offset="1"
         style="stop-color:#ffffff;stop-opacity:1" />
    </linearGradient>
    <clipPath
       id="clipPath1609-7"
       clipPathUnits="userSpaceOnUse">
      <path
         inkscape:connector-curvature="0"
         style="fill:#e74747;stroke:none;stroke-width:0.25px;stroke-linecap:butt;stroke-linejoin:miter;stroke-opacity:1"
         d="m 252,116 28,-28 v -8 h -36 v 36 z"
         id="path1611-5" />
    </clipPath>
    <linearGradient
       inkscape:collect="always"
       xlink:href="#linearGradient1723"
       id="linearGradient8548"
       gradientUnits="userSpaceOnUse"
       gradientTransform="translate(-16.436501,243.42857)"
       x1="7.99998"
       y1="-244.84381"
       x2="111.99999"
       y2="-244" />
    <linearGradient
       id="linearGradient1723">
      <stop
         id="stop1719"
         offset="0"
         style="stop-color:#d5d3cf;stop-opacity:1" />
      <stop
         style="stop-color:#f6f5f4;stop-opacity:1"
         offset="0.04545454"
         id="stop1731" />
      <stop
         style="stop-color:#d5d3cf;stop-opacity:1"
         offset="0.09090909"
         id="stop1729" />
      <stop
         style="stop-color:#d5d3cf;stop-opacity:1"
         offset="0.90909088"
         id="stop1727" />
      <stop
         id="stop1733"
         offset="0.95454544"
         style="stop-color:#eeeeec;stop-opacity:1" />
      <stop
         id="stop1721"
         offset="1"
         style="stop-color:#d5d3cf;stop-opacity:1" />
    </linearGradient>
  </defs>
  <sodipodi:namedview
     id="base"
     pagecolor="#ffffff"
     bordercolor="#666666"
     borderopacity="1.0"
     inkscape:pageopacity="0.0"
     inkscape:pageshadow="2"
     inkscape:zoom="3.5"
     inkscape:cx="26.055071"
     inkscape:cy="30.105957"
     inkscape:current-layer="layer1"
     showgrid="true"
     inkscape:grid-bbox="true"
     inkscape:document-units="px"
     inkscape:window-width="1600"
     inkscape:window-height="863"
     inkscape:window-x="0"
     inkscape:window-y="0"
     inkscape:window-maximized="1" />
  <metadata
     id="metadata3090">
    <rdf:RDF>
      <cc:Work
         rdf:about="">
        <dc:format>image/svg+xml</dc:format>
        <dc:type
           rdf:resource="http://purl.org/dc/dcmitype/StillImage" />
        <dc:title></dc:title>
      </cc:Work>
    </rdf:RDF>
  </metadata>
  <g
     id="layer1"
     inkscape:label="Layer 1"
     inkscape:groupmode="layer"
     transform="translate(0,80)">
    <g
       id="g3557"
       transform="translate(107.42857,-4.5714302)">
      <rect
         clip-path="none"
         ry="8"
         rx="8"
         y="-40.571434"
         x="-8.4365215"
         height="27.596491"
         width="104"
         id="rect8496"
         style="display:inline;opacity:1;vector-effect:none;fill:#26a269;fill-opacity:1;stroke:none;stroke-width:13.71876526;stroke-linecap:butt;stroke-linejoin:miter;stroke-miterlimit:4;stroke-dasharray:none;stroke-dashoffset:0;stroke-opacity:1;marker:none;marker-start:none;marker-mid:none;marker-end:none;paint-order:normal;enable-background:new"
         transform="scale(-1)" />
      <rect
         transform="scale(-1)"
         style="display:inline;opacity:1;vector-effect:none;fill:url(#linearGradient8548);fill-opacity:1;stroke:none;stroke-width:13.71876526;stroke-linecap:butt;stroke-linejoin:miter;stroke-miterlimit:4;stroke-dasharray:none;stroke-dashoffset:0;stroke-opacity:1;marker:none;marker-start:none;marker-mid:none;marker-end:none;paint-order:normal;enable-background:new"
         id="rect8510"
         width="104"
         height="36.491226"
         x="-8.4365215"
         y="-38.74688"
         rx="8"
         ry="8"
         clip-path="none" />
      <rect
         transform="scale(-1)"
         style="display:inline;opacity:1;vector-effect:none;fill:#f6f5f4;fill-opacity:1;stroke:none;stroke-width:13.71876526;stroke-linecap:butt;stroke-linejoin:miter;stroke-miterlimit:4;stroke-dasharray:none;stroke-dashoffset:0;stroke-opacity:1;marker:none;marker-start:none;marker-mid:none;marker-end:none;paint-order:normal;enable-background:new"
         id="rect8512"
         width="104"
         height="43.789474"
         x="-8.4365215"
         y="19.639093"
         clip-path="none" />
      <rect
         clip-path="none"
         ry="8"
         rx="8"
         y="-35.09774"
         x="-8.4365215"
         height="98.526314"
         width="104"
         id="rect8514"
         style="display:inline;opacity:1;vector-effect:none;fill:#f6f5f4;fill-opacity:1;stroke:none;stroke-width:13.71876526;stroke-linecap:butt;stroke-linejoin:miter;stroke-miterlimit:4;stroke-dasharray:none;stroke-dashoffset:0;stroke-opacity:1;marker:none;marker-start:none;marker-mid:none;marker-end:none;paint-order:normal;enable-background:new"
         transform="scale(-1)" />
      <g
         id="text10148"
         style="font-style:normal;font-variant:normal;font-weight:bold;font-stretch:normal;font-size:40px;line-height:0%;font-family:FreeSans;-inkscape-font-specification:'FreeSans Bold';text-align:center;text-anchor:middle;display:inline;fill:#241f31;fill-opacity:0.14117647;stroke:none;stroke-width:1.10452974;enable-background:new"
         transform="matrix(1.025818,0,0,0.97483179,-107.56348,-247.42857)"
         aria-label="A">
        <path
           sodipodi:nodetypes="ccccccccccccccc"
           inkscape:connector-curvature="0"
           id="path10150"
           style="font-size:40px;fill:#241f31;fill-opacity:0.14117647;stroke-width:1.10452974"
           d="m 44.674422,273.14249 h -10.92 l -1.96,5.88 h -6.12 l -0.0033,-2.05163 10.363289,-27.10837 h 6.64 l 10.114233,27.10837 -0.03423,2.05163 h -6.16 z m -1.64,-5 -3.8,-11.4 -3.8,11.4 z" />
      </g>
      <text
         xml:space="preserve"
         style="font-style:normal;font-weight:bold;font-size:50.66666794px;line-height:0%;font-family:FreeSans;-inkscape-font-specification:'Sans Bold';text-align:center;text-anchor:middle;display:inline;fill:#241f31;fill-opacity:0.14117647;stroke:none;stroke-width:1.10452974;enable-background:new"
         x="-23.92782"
         y="-10.440705"
         id="text10144"
         transform="scale(0.97200623,1.0288)"><tspan
           sodipodi:role="line"
           id="tspan10142"
           x="-23.92782"
           y="-10.440705"
           style="font-size:40px;fill:#241f31;fill-opacity:0.14117647;stroke-width:1.10452974">𝛀</tspan></text>
      <text
         transform="scale(1.025818,0.97483179)"
         id="text9426"
         y="23.154179"
         x="-65.636559"
         style="font-style:normal;font-variant:normal;font-weight:bold;font-stretch:normal;font-size:40px;line-height:0%;font-family:FreeSans;-inkscape-font-specification:'FreeSans Bold';text-align:center;text-anchor:middle;display:inline;fill:#5e5c64;fill-opacity:1;stroke:none;stroke-width:1.10452974;enable-background:new"
         xml:space="preserve"><tspan
           style="font-size:40px;fill:#5e5c64;fill-opacity:1;stroke-width:1.10452974"
           y="23.154179"
           x="-65.636559"
           id="tspan9428"
           sodipodi:role="line">A</tspan></text>
      <text
         transform="scale(0.97200623,1.0288)"
         id="text9430"
         y="-12.384721"
         x="-23.92782"
         style="font-style:normal;font-weight:bold;font-size:50.66666794px;line-height:0%;font-family:FreeSans;-inkscape-font-specification:'Sans Bold';text-align:center;text-anchor:middle;display:inline;fill:#5e5c64;fill-opacity:1;stroke:none;stroke-width:1.10452974;enable-background:new"
         xml:space="preserve"><tspan
           style="font-size:40px;fill:#5e5c64;fill-opacity:1;stroke-width:1.10452974"
           y="-12.384721"
           x="-23.92782"
           id="tspan9432"
           sodipodi:role="line">𝛀</tspan></text>
      <rect
         style="display:inline;opacity:1;fill:url(#linearGradient8550);fill-opacity:1;stroke:none;stroke-width:0.5;stroke-linecap:butt;stroke-linejoin:miter;stroke-miterlimit:4;stroke-dasharray:none;stroke-dashoffset:0;stroke-opacity:1;marker:none;marker-start:none;marker-mid:none;marker-end:none;paint-order:normal;enable-background:new"
         id="rect8518"
         width="36"
         height="36"
         x="252"
         y="88"
         rx="11.2"
         ry="11.2"
         transform="matrix(0,0.71428571,0.71428571,0,-74.150807,-164.63714)"
         clip-path="url(#clipPath1609-7)" />
      <path
         id="path8536"
         d="m -87.563479,-57.428568 c -1.10457,0 -2,0.89543 -2,2 0,1.10457 0.89543,2.000001 2,2.000001 1.10457,0 2,-0.895431 2,-2.000001 0,-1.10457 -0.89543,-2 -2,-2 z m 8,0 c -1.10457,0 -2,0.89543 -2,2 0,1.10457 0.89543,2.000001 2,2.000001 1.10457,0 2,-0.895431 2,-2.000001 0,-1.10457 -0.89543,-2 -2,-2 z m 8,0 c -1.10457,0 -2,0.89543 -2,2 0,1.10457 0.89543,2.000001 2,2.000001 1.10457,0 2,-0.895431 2,-2.000001 0,-1.10457 -0.89543,-2 -2,-2 z m 8,0 c -1.10457,0 -2,0.89543 -2,2 0,1.10457 0.89543,2.000001 2,2.000001 1.10457,0 2,-0.895431 2,-2.000001 0,-1.10457 -0.89543,-2 -2,-2 z m 8,0 c -1.10457,0 -2,0.89543 -2,2 0,1.10457 0.89543,2.000001 2,2.000001 1.10457,0 2,-0.895431 2,-2.000001 0,-1.10457 -0.89543,-2 -2,-2 z m 8,0 c -1.10457,0 -2,0.89543 -2,2 0,1.10457 0.89543,2.000001 2,2.000001 1.10457,0 2,-0.895431 2,-2.000001 0,-1.10457 -0.89543,-2 -2,-2 z m 8,0 c -1.10457,0 -2,0.89543 -2,2 0,1.10457 0.89543,2.000001 2,2.000001 1.10457,0 2,-0.895431 2,-2.000001 0,-1.10457 -0.89543,-2 -2,-2 z m 8,0 c -1.10457,0 -2,0.89543 -2,2 0,1.10457 0.89543,2.000001 2,2.000001 1.10457,0 2,-0.895431 2,-2.000001 0,-1.10457 -0.89543,-2 -2,-2 z m 8,0 c -1.10457,0 -2,0.89543 -2,2 0,1.10457 0.89543,2.000001 2,2.000001 1.10457,0 2,-0.895431 2,-2.000001 0,-1.10457 -0.89543,-2 -2,-2 z"
         style="display:inline;opacity:1;fill:#d5d3cf;fill-opacity:1;stroke:none;stroke-width:4;stroke-linecap:square;stroke-linejoin:round;stroke-miterlimit:4;stroke-dasharray:none;stroke-dashoffset:0;stroke-opacity:1;enable-background:new"
         inkscape:connector-curvature="0" />
      <path
         d="m -95.563479,-57.428568 a 2,2 0 0 1 2,2 2,2 0 0 1 -2,2.000001 v -2.000001 z"
         id="path8538"
         style="display:inline;opacity:1;vector-effect:none;fill:#d5d3cf;fill-opacity:1;stroke:none;stroke-width:16;stroke-linecap:butt;stroke-linejoin:round;stroke-miterlimit:4;stroke-dasharray:none;stroke-dashoffset:0;stroke-opacity:1;enable-background:new"
         inkscape:connector-curvature="0" />
      <path
         style="display:inline;opacity:1;vector-effect:none;fill:#d5d3cf;fill-opacity:1;stroke:none;stroke-width:16;stroke-linecap:butt;stroke-linejoin:round;stroke-miterlimit:4;stroke-dasharray:none;stroke-dashoffset:0;stroke-opacity:1;enable-background:new"
         id="path8540"
         d="m 8.4365214,-57.428568 a 2,2 0 0 0 -2,2 2,2 0 0 0 2,2.000001 v -2.000001 z"
         inkscape:connector-curvature="0" />
      <path
         inkscape:connector-curvature="0"
         style="display:inline;opacity:1;fill:#d5d3cf;fill-opacity:1;stroke:none;stroke-width:4;stroke-linecap:square;stroke-linejoin:round;stroke-miterlimit:4;stroke-dasharray:none;stroke-dashoffset:0;stroke-opacity:1;enable-background:new"
         d="m -63.563479,-57.428568 c -1.10457,0 -2,0.89543 -2,2 0,1.10457 0.89543,2.000001 2,2.000001 1.10457,0 2,-0.895431 2,-2.000001 0,-1.10457 -0.89543,-2 -2,-2 z m 8,0 c -1.10457,0 -2,0.89543 -2,2 0,1.10457 0.89543,2.000001 2,2.000001 1.10457,0 2,-0.895431 2,-2.000001 0,-1.10457 -0.89543,-2 -2,-2 z m 8,0 c -1.10457,0 -2,0.89543 -2,2 0,1.10457 0.89543,2.000001 2,2.000001 1.10457,0 2,-0.895431 2,-2.000001 0,-1.10457 -0.89543,-2 -2,-2 z m 8,0 c -1.10457,0 -2,0.89543 -2,2 0,1.10457 0.89543,2.000001 2,2.000001 1.10457,0 2,-0.895431 2,-2.000001 0,-1.10457 -0.89543,-2 -2,-2 z m 8,0 c -1.10457,0 -2,0.89543 -2,2 0,1.10457 0.89543,2.000001 2,2.000001 1.10457,0 2,-0.895431 2,-2.000001 0,-1.10457 -0.89543,-2 -2,-2 z m 8,0 c -1.10457,0 -2,0.89543 -2,2 0,1.10457 0.89543,2.000001 2,2.000001 1.10457,0 2,-0.895431 2,-2.000001 0,-1.10457 -0.89543,-2 -2,-2 z m 8,0 c -1.10457,0 -2,0.89543 -2,2 0,1.10457 0.89543,2.000001 2,2.000001 1.10457,0 2,-0.895431 2,-2.000001 0,-1.10457 -0.89543,-2 -2,-2 z m 8.0000004,0 c -1.10457,0 -2,0.89543 -2,2 0,1.10457 0.89543,2.000001 2,2.000001 1.104572,0 2.000002,-0.895431 2.000002,-2.000001 0,-1.10457 -0.89543,-2 -2.000002,-2 z m 8.00000199,0 c -1.10457,0 -1.99999999,0.89543 -1.99999999,2 0,1.10457 0.89542999,2.000001 1.99999999,2.000001 1.10457001,0 2.00000001,-0.895431 2.00000001,-2.000001 0,-1.10457 -0.89543,-2 -2.00000001,-2 z"
         id="path8626" />
      <path
         style="display:inline;opacity:1;fill:#424040;fill-opacity:0.14117647;stroke:none;stroke-width:1;stroke-linecap:round;stroke-linejoin:round;stroke-miterlimit:4;stroke-dasharray:none;stroke-opacity:1;enable-background:new"
         d="m -54.990577,-28.231957 1.5814,4.83266 11.022049,-12.14429 v -2.93699 l -16.019933,-5.08485 0.05112,2.80593 0.883963,4.60191 c -14.024732,7.0668 -19.629899,18.48872 -19.629899,19.01046 v 2.93699 l 8.903131,1.46896 c 2.013853,-8.5135 6.961348,-12.81866 13.208171,-15.49078 z"
         id="path10126"
         inkscape:connector-curvature="0"
         sodipodi:nodetypes="cccccccsccc" />
      <path
         sodipodi:nodetypes="cccccccc"
         inkscape:connector-curvature="0"
         id="path10058"
         d="m -54.990577,-31.168937 1.5814,4.83265 11.022049,-12.14429 -16.019933,-5.08485 0.935075,4.47085 c -15.804688,7.9637 -17.454299,14.93718 -19.629893,21.94745 l 8.53494,1.50988 c 2.013853,-8.51351 7.329539,-12.85958 13.576362,-15.53169 z"
         style="display:inline;opacity:1;fill:#33d17a;fill-opacity:1;stroke:none;stroke-width:1;stroke-linecap:round;stroke-linejoin:round;stroke-miterlimit:4;stroke-dasharray:none;stroke-opacity:1;enable-background:new" />
      <path
         sodipodi:nodetypes="cccccccccccc"
         inkscape:connector-curvature="0"
         id="path10124"
         d="m -34.918688,11.852913 -1.581401,-4.8326602 -11.910461,9.3579802 0.0076,2.78631 16.072632,5.49891 -0.08702,-3.2594 -0.512868,-1.5072 c 15.804688,-7.9637 18.683942,-18.5633402 19.196122,-21.0855202 l 0.01508,-3.77218 -7.623353,1.28207 c -2.013853,8.5135 -7.329539,12.85957 -13.576361,15.5316902 z"
         style="display:inline;opacity:1;fill:#000000;fill-opacity:0.14191422;stroke:none;stroke-width:1;stroke-linecap:round;stroke-linejoin:round;stroke-miterlimit:4;stroke-dasharray:none;stroke-opacity:1;enable-background:new" />
      <path
         style="display:inline;opacity:1;fill:#33d17a;fill-opacity:1;stroke:none;stroke-width:1;stroke-linecap:round;stroke-linejoin:round;stroke-miterlimit:4;stroke-dasharray:none;stroke-opacity:1;enable-background:new"
         d="m -35.818304,9.0794828 -1.5814,-4.83265 -11.022049,12.1442802 16.019933,5.08485 -0.935075,-4.47084 C -17.532207,9.0414228 -15.882596,2.0679328 -13.707002,-4.9423272 l -8.53494,-1.50988 c -2.013853,8.51351 -7.329539,12.85957 -13.576362,15.53169 z"
         id="path10060"
         inkscape:connector-curvature="0"
         sodipodi:nodetypes="cccccccc" />
    </g>
  </g>
</svg>
